# xmcd
#
# Track frame offsets:
#	150
#	18280
#	37261
#	52612
#	73475
#	88646
#	106311
#	122550
#	137312
#	153239
#	170366
#	184801
#	199083
#	213448
#
# Disc length: 3008 seconds
#
# Revision: 0
# Processed by: cddbd v1.5.1PL0 Copyright (c) Steve Scherf et al.
# Submitted via: dBpowerAMP V4.0
#
DISCID=ba0bbe0e
DTITLE=Branden Hart - Branden Hart
DYEAR=1900
DGENRE=Country
TTITLE0=True
TTITLE1=Summer in Wichita
TTITLE2=That's a Good Thing
TTITLE3=How Can I Resist
TTITLE4=The One You Love
TTITLE5=Hold You Again
TTITLE6=Come With Me
TTITLE7=To Feel It Again
TTITLE8=Time Flies
TTITLE9=Leavin'
TTITLE10=Good To You
TTITLE11=I've Seen Your Sunshine
TTITLE12=Let's Do It
TTITLE13=That's How She Talked Me Into This
EXTD=Branden Hart\n
EXTT0=
EXTT1=
EXTT2=
EXTT3=
EXTT4=
EXTT5=
EXTT6=
EXTT7=
EXTT8=
EXTT9=
EXTT10=
EXTT11=
EXTT12=
EXTT13=
PLAYORDER=
